<?xml version="1.0" encoding="UTF-8" standalone="no"?>
<!DOCTYPE svg PUBLIC "-//W3C//DTD SVG 1.1//EN" "http://www.w3.org/Graphics/SVG/1.1/DTD/svg11.dtd">
<svg width="100%" height="100%" viewBox="0 0 57 52" version="1.1" xmlns="http://www.w3.org/2000/svg" xmlns:xlink="http://www.w3.org/1999/xlink" xml:space="preserve" xmlns:serif="http://www.serif.com/" style="fill-rule:evenodd;clip-rule:evenodd;stroke-linejoin:round;stroke-miterlimit:2;">
    <g transform="matrix(1,0,0,1,-11.534,-14.4075)">
        <g transform="matrix(1.08676,0,0,0.88098,-117.028,-123.005)">
            <path d="M133.494,165.871C131.104,167.532 128.958,171.391 127.706,175.569C126.283,180.314 126.057,185.34 127.322,187.717C127.98,188.971 129.119,189.929 130.505,190.418C132.096,190.978 133.998,190.951 135.566,190.286C137.166,189.588 138.167,189.084 139.043,188.424C140.236,187.526 141.198,186.384 143.288,184.164C143.51,183.931 144.216,183.106 145.231,182.813C145.828,182.641 146.532,182.643 147.281,183.07C148.389,183.735 148.984,184.617 149.407,185.886C149.956,187.536 150.25,189.732 150.853,192.724C151.55,196.194 152.791,198.481 154.367,200.046C156.117,201.783 158.303,202.623 160.705,203.129C161.226,203.239 161.722,202.807 161.811,202.164C161.901,201.521 161.55,200.909 161.029,200.799C158.968,200.361 157.076,199.688 155.575,198.196C154.281,196.909 153.297,195.004 152.725,192.152C151.939,188.226 151.596,185.606 150.709,183.742C150.139,182.547 149.367,181.62 148.165,180.869C146.968,180.086 145.818,180.026 144.822,180.216C143.312,180.505 142.169,181.506 141.818,181.807C139.717,183.583 138.731,184.479 137.582,185.204C136.807,185.692 135.955,186.094 134.581,186.617C133.76,186.94 132.799,186.969 131.93,186.761C131.156,186.575 130.432,186.226 130.092,185.551C129.258,183.867 129.904,180.421 131.013,177.184C132.033,174.207 133.594,171.384 135.382,170.306C136.374,169.663 136.757,168.148 136.236,166.924C135.714,165.7 134.486,165.228 133.494,165.871Z"/>
        </g>
    </g>
</svg>
