<?xml version="1.0" encoding="UTF-8" standalone="no"?>
<!DOCTYPE svg PUBLIC "-//W3C//DTD SVG 1.1//EN" "http://www.w3.org/Graphics/SVG/1.1/DTD/svg11.dtd">
<svg width="100%" height="100%" viewBox="0 0 57 52" version="1.1" xmlns="http://www.w3.org/2000/svg" xmlns:xlink="http://www.w3.org/1999/xlink" xml:space="preserve" xmlns:serif="http://www.serif.com/" style="fill-rule:evenodd;clip-rule:evenodd;stroke-linejoin:round;stroke-miterlimit:2;">
    <g transform="matrix(1,0,0,1,-11.534,-14.4075)">
        <g transform="matrix(1.08676,0,0,0.88098,-117.028,-123.005)">
            <path d="M132.994,164.697C130.451,166.529 128.131,170.637 126.83,175.142C125.341,180.299 125.202,185.733 126.588,188.29C127.356,189.736 128.657,190.874 130.262,191.427C132.015,192.032 134.106,192.001 135.827,191.257C137.486,190.509 138.529,189.985 139.43,189.276C140.637,188.326 141.592,187.137 143.677,184.788C143.869,184.577 144.449,183.78 145.339,183.501C145.833,183.345 146.42,183.309 147.047,183.652C148.026,184.235 148.557,185.006 148.931,186.124C149.476,187.751 149.761,189.922 150.357,192.875C151.088,196.509 152.396,198.898 154.048,200.536C155.863,202.337 158.127,203.222 160.619,203.746C161.416,203.915 162.174,203.253 162.311,202.27C162.448,201.286 161.912,200.351 161.114,200.182C159.144,199.762 157.33,199.134 155.895,197.706C154.675,196.492 153.759,194.689 153.22,192C152.42,187.992 152.053,185.324 151.15,183.419C150.535,182.119 149.701,181.109 148.399,180.286C147.087,179.398 145.817,179.346 144.714,179.529C143.068,179.802 141.817,180.868 141.429,181.183C139.326,182.852 138.335,183.667 137.195,184.351C136.449,184.799 135.634,185.165 134.321,185.646C133.767,185.86 133.137,185.893 132.534,185.818C131.838,185.732 131.119,185.569 130.826,184.978C130.096,183.477 130.878,180.466 131.888,177.612C132.833,174.944 134.259,172.42 135.882,171.48C137.4,170.497 137.984,168.179 137.187,166.307C136.39,164.435 134.511,163.714 132.994,164.697Z"/>
        </g>
    </g>
</svg>
