<?xml version="1.0" encoding="UTF-8" standalone="no"?>
<!DOCTYPE svg PUBLIC "-//W3C//DTD SVG 1.1//EN" "http://www.w3.org/Graphics/SVG/1.1/DTD/svg11.dtd">
<svg width="100%" height="100%" viewBox="0 0 57 52" version="1.1" xmlns="http://www.w3.org/2000/svg" xmlns:xlink="http://www.w3.org/1999/xlink" xml:space="preserve" xmlns:serif="http://www.serif.com/" style="fill-rule:evenodd;clip-rule:evenodd;stroke-linejoin:round;stroke-miterlimit:2;">
    <g transform="matrix(1,0,0,1,-11.534,-14.4075)">
        <g transform="matrix(1.08676,0,0,0.88098,-117.028,-123.005)">
            <path d="M132.494,163.523C129.802,165.533 127.298,169.88 125.955,174.714C124.407,180.287 124.344,186.128 125.855,188.863C126.733,190.5 128.194,191.821 130.019,192.437C131.934,193.084 134.214,193.053 136.087,192.229C137.805,191.428 138.892,190.889 139.817,190.128C141.038,189.125 141.986,187.896 144.066,185.412C144.229,185.223 144.678,184.45 145.447,184.188C145.84,184.054 146.309,183.97 146.813,184.235C147.662,184.736 148.131,185.395 148.456,186.363C148.996,187.967 149.272,190.112 149.861,193.027C150.626,196.824 152.002,199.314 153.728,201.026C155.609,202.891 157.951,203.821 160.533,204.363C161.606,204.59 162.627,203.699 162.811,202.376C162.995,201.052 162.273,199.792 161.2,199.565C159.32,199.164 157.584,198.579 156.215,197.217C155.069,196.076 154.222,194.373 153.716,191.849C152.901,187.757 152.509,185.042 151.592,183.095C150.931,181.691 150.035,180.599 148.633,179.704C147.208,178.705 145.816,178.67 144.606,178.841C142.821,179.093 141.466,180.232 141.04,180.56C138.933,182.126 137.94,182.854 136.808,183.499C136.092,183.907 135.313,184.234 134.06,184.675L131.559,184.404C130.931,183.087 131.856,180.52 132.764,178.04C133.627,175.678 134.927,173.462 136.382,172.654C138.425,171.33 139.212,168.21 138.139,165.69C137.066,163.171 134.536,162.2 132.494,163.523Z"/>
        </g>
    </g>
</svg>
