<?xml version="1.0" encoding="UTF-8" standalone="no"?>
<!DOCTYPE svg PUBLIC "-//W3C//DTD SVG 1.1//EN" "http://www.w3.org/Graphics/SVG/1.1/DTD/svg11.dtd">
<svg width="100%" height="100%" viewBox="0 0 57 52" version="1.1" xmlns="http://www.w3.org/2000/svg" xmlns:xlink="http://www.w3.org/1999/xlink" xml:space="preserve" xmlns:serif="http://www.serif.com/" style="fill-rule:evenodd;clip-rule:evenodd;stroke-linejoin:round;stroke-miterlimit:2;">
    <g transform="matrix(1,0,0,1,-11.534,-14.4075)">
        <g transform="matrix(1.08676,0,0,0.88098,-117.028,-123.005)">
            <path d="M132.049,162.48C129.226,164.653 126.553,169.204 125.177,174.334C123.582,180.28 123.579,186.48 125.203,189.373C126.181,191.178 127.781,192.666 129.803,193.335C131.862,194.017 134.311,193.991 136.319,193.092C138.668,191.94 139.896,191.291 141.109,190.057C142.007,189.143 142.861,187.954 144.412,185.966C144.551,185.798 144.878,185.041 145.543,184.799C145.847,184.689 146.211,184.553 146.605,184.753C147.338,185.182 147.752,185.74 148.034,186.574C148.57,188.159 148.838,190.281 149.421,193.161C150.215,197.105 151.651,199.684 153.444,201.461C155.384,203.384 157.795,204.354 160.457,204.911C161.775,205.19 163.029,204.096 163.256,202.47C163.482,200.843 162.595,199.296 161.276,199.017C159.476,198.632 157.81,198.086 156.499,196.781C155.42,195.706 154.633,194.093 154.157,191.714C153.328,187.549 152.915,184.792 151.985,182.807C151.283,181.31 150.331,180.146 148.841,179.186C147.318,178.085 145.816,178.075 144.51,178.23C142.601,178.458 141.155,179.668 140.694,180.005L133.828,183.812C133.199,184.045 131.57,184.145 131.905,183.531C131.988,183.377 132.14,183.749 132.211,183.895C131.669,182.737 132.729,180.579 133.542,178.42C134.329,176.327 135.523,174.395 136.826,173.697C139.336,172.071 140.303,168.238 138.985,165.142C137.666,162.047 134.559,160.854 132.049,162.48Z"/>
        </g>
    </g>
</svg>
