<?xml version="1.0" encoding="UTF-8" standalone="no"?>
<!DOCTYPE svg PUBLIC "-//W3C//DTD SVG 1.1//EN" "http://www.w3.org/Graphics/SVG/1.1/DTD/svg11.dtd">
<svg width="100%" height="100%" viewBox="0 0 57 52" version="1.1" xmlns="http://www.w3.org/2000/svg" xmlns:xlink="http://www.w3.org/1999/xlink" xml:space="preserve" xmlns:serif="http://www.serif.com/" style="fill-rule:evenodd;clip-rule:evenodd;stroke-linejoin:round;stroke-miterlimit:2;">
    <g transform="matrix(1,0,0,1,-11.534,-14.4075)">
        <g transform="matrix(1.08676,0,0,0.88098,-117.028,-123.005)">
            <path d="M145.042,186.809C143.328,189.307 141.245,192.938 138.445,194.559C135.478,196.276 131.971,196.027 128.024,192.671C123.643,188.898 122.668,181.926 123.805,175.193C124.94,168.479 128.704,162.717 132.691,160.551C135.713,159.273 139.013,161.244 140.056,164.95C141.098,168.657 139.491,172.704 136.468,173.982C135.12,174.399 133.886,176.264 133.322,178.338C132.802,180.248 132.328,182.463 133.549,183.669C134.555,184.693 135.417,184.759 136.242,184.275C138.859,182.739 141.235,180.127 142.946,179.115C144.198,178.211 146.297,177.96 148.448,180.055C150.651,182.2 153.522,186.811 154.46,191.631C154.917,193.912 155.661,195.465 156.695,196.498C157.965,197.767 159.585,198.286 161.331,198.66C162.818,198.975 163.817,200.711 163.561,202.534C163.304,204.358 161.889,205.582 160.402,205.268C157.678,204.699 155.215,203.698 153.231,201.728C151.4,199.909 149.929,197.274 149.117,193.245C148.543,190.526 145.988,185.451 145.042,186.809Z"/>
        </g>
    </g>
</svg>
